<?xml version="1.0" encoding="UTF-8" standalone="no"?>
<!-- Created with Inkscape (http://www.inkscape.org/) -->

<svg
   xmlns:dc="http://purl.org/dc/elements/1.1/"
   xmlns:cc="http://creativecommons.org/ns#"
   xmlns:rdf="http://www.w3.org/1999/02/22-rdf-syntax-ns#"
   xmlns:svg="http://www.w3.org/2000/svg"
   xmlns="http://www.w3.org/2000/svg"
   xmlns:sodipodi="http://sodipodi.sourceforge.net/DTD/sodipodi-0.dtd"
   xmlns:inkscape="http://www.inkscape.org/namespaces/inkscape"
   width="650"
   height="504.15988"
   id="svg16795"
   version="1.1"
   inkscape:version="0.48.4 r9939"
   sodipodi:docname="New document 134">
  <defs
     id="defs16797" />
  <sodipodi:namedview
     id="base"
     pagecolor="#ffffff"
     bordercolor="#666666"
     borderopacity="1.0"
     inkscape:pageopacity="0.0"
     inkscape:pageshadow="2"
     inkscape:zoom="0.49497475"
     inkscape:cx="-32.670018"
     inkscape:cy="145.90667"
     inkscape:document-units="px"
     inkscape:current-layer="layer1"
     showgrid="false"
     fit-margin-top="25"
     fit-margin-bottom="25"
     fit-margin-right="25"
     fit-margin-left="25"
     inkscape:window-width="1920"
     inkscape:window-height="1027"
     inkscape:window-x="0"
     inkscape:window-y="0"
     inkscape:window-maximized="1" />
  <metadata
     id="metadata16800">
    <rdf:RDF>
      <cc:Work
         rdf:about="">
        <dc:format>image/svg+xml</dc:format>
        <dc:type
           rdf:resource="http://purl.org/dc/dcmitype/StillImage" />
        <dc:title></dc:title>
      </cc:Work>
    </rdf:RDF>
  </metadata>
  <g
     inkscape:label="Layer 1"
     inkscape:groupmode="layer"
     id="layer1"
     transform="translate(-41.461965,-93.754266)">
    <g
       id="g3908-8-4-3-7"
       transform="matrix(2.9999999,0,0,2.9999999,-22.324232,-3017.9252)">
      <g
         id="g3948-4-3-9"
         transform="translate(-42.142857,-62.857143)">
        <g
           id="g3883-3-6-8-6">
          <path
             inkscape:connector-curvature="0"
             id="path3036-2-5-1-8-2"
             d="m 171.73826,1109.917 c -54.40005,0 -98.499997,7.0879 -98.499997,15.8312 0,0.2413 0.02725,0.4809 0.09375,0.7196 l -0.09375,0 0,99.3045 0.09375,0 c -0.05922,0.2254 -0.09375,0.492 -0.09375,0.7196 0,8.7434 44.099947,15.8312 98.499997,15.8312 54.40005,0 98.5,-7.0878 98.5,-15.8312 0,-0.2276 -0.0345,-0.4942 -0.0937,-0.7196 l 0.0937,0 0,-99.3045 -0.0937,0 c 0.0665,-0.2387 0.0937,-0.4783 0.0937,-0.7196 0,-8.7433 -44.09995,-15.8312 -98.5,-15.8312 z"
             style="fill:#ff5555;fill-opacity:1;stroke:#000000;stroke-width:3;stroke-miterlimit:4;stroke-opacity:1;stroke-dasharray:none" />
          <path
             transform="matrix(1.0139706,0,0,0.90588232,-92.618368,188.30662)"
             d="m 357.85715,1029.505 c 0,6.7063 -43.49234,12.1429 -97.14286,12.1429 -53.65052,0 -97.14286,-5.4366 -97.14286,-12.1429 0,-6.7063 43.49234,-12.1429 97.14286,-12.1429 53.65052,0 97.14286,5.4366 97.14286,12.1429 z"
             sodipodi:ry="12.142858"
             sodipodi:rx="97.14286"
             sodipodi:cy="1029.505"
             sodipodi:cx="260.71429"
             id="path3036-9-5-4-8"
             style="fill:#ff5555;fill-opacity:1;stroke:#000000;stroke-width:3.1302042;stroke-miterlimit:4;stroke-opacity:1;stroke-dasharray:none"
             sodipodi:type="arc" />
        </g>
        <text
           sodipodi:linespacing="125%"
           id="text4828-4-6-7-7-5-4-7"
           y="1259.613"
           x="142.04158"
           style="font-size:12.7064991px;font-style:normal;font-variant:normal;font-weight:normal;font-stretch:normal;text-align:start;line-height:125%;letter-spacing:0px;word-spacing:0px;writing-mode:lr-tb;text-anchor:start;fill:#000000;fill-opacity:1;stroke:none;font-family:Helvetica LT Std;-inkscape-font-specification:Helvetica LT Std"
           xml:space="preserve"><tspan
             y="1259.613"
             x="142.04158"
             id="tspan4830-5-6-0-7-8-4-8"
             sodipodi:role="line">DB cluster</tspan></text>
      </g>
    </g>
    <g
       id="g16987"
       transform="translate(20,0)">
      <g
         transform="matrix(0.98474574,0,0,0.98474574,338.86886,-739.98206)"
         id="g3908-80-1-6-6">
        <g
           id="g3883-2-5-9-7">
          <path
             inkscape:connector-curvature="0"
             id="path3036-2-1-5-6-8"
             d="m 171.73826,1130.12 c -54.40005,0 -98.499997,4.9249 -98.499997,11 0,0.1677 0.02725,0.3342 0.09375,0.5 l -0.09375,0 0,69 0.09375,0 c -0.05922,0.1566 -0.09375,0.3418 -0.09375,0.5 0,6.0752 44.099947,11 98.499997,11 54.40005,0 98.5,-4.9248 98.5,-11 0,-0.1582 -0.0345,-0.3434 -0.0937,-0.5 l 0.0937,0 0,-69 -0.0937,0 c 0.0665,-0.1658 0.0937,-0.3323 0.0937,-0.5 0,-6.0751 -44.09995,-11 -98.5,-11 z"
             style="fill:#ff8080;fill-opacity:1;stroke:#000000;stroke-width:3;stroke-miterlimit:4;stroke-opacity:1;stroke-dasharray:none" />
          <path
             transform="matrix(1.0139706,0,0,0.90588232,-92.618368,208.50962)"
             d="m 357.85715,1029.505 c 0,6.7063 -43.49234,12.1429 -97.14286,12.1429 -53.65052,0 -97.14286,-5.4366 -97.14286,-12.1429 0,-6.7063 43.49234,-12.1429 97.14286,-12.1429 53.65052,0 97.14286,5.4366 97.14286,12.1429 z"
             sodipodi:ry="12.142858"
             sodipodi:rx="97.14286"
             sodipodi:cy="1029.505"
             sodipodi:cx="260.71429"
             id="path3036-94-6-0-1"
             style="fill:#ffaaaa;fill-opacity:1;stroke:#000000;stroke-width:3.1302042;stroke-miterlimit:4;stroke-opacity:1;stroke-dasharray:none"
             sodipodi:type="arc" />
        </g>
      </g>
      <text
         sodipodi:linespacing="125%"
         id="text4828-4-6-7-7-5-4-7-8-8-6"
         y="437.4451"
         x="458.27084"
         style="font-size:32px;font-style:normal;font-variant:normal;font-weight:normal;font-stretch:normal;text-align:start;line-height:125%;letter-spacing:0px;word-spacing:0px;writing-mode:lr-tb;text-anchor:start;fill:#000000;fill-opacity:1;stroke:none;font-family:Helvetica LT Std;-inkscape-font-specification:Helvetica LT Std"
         xml:space="preserve"><tspan
           y="437.4451"
           x="458.27084"
           id="tspan4830-5-6-0-7-8-4-8-8-6-1"
           sodipodi:role="line">slave 2</tspan></text>
    </g>
    <g
       id="g17003"
       transform="translate(-20,0)">
      <g
         transform="matrix(0.98474574,0,0,0.98474574,55.818025,-739.98206)"
         id="g3908-80-8-2-0">
        <g
           id="g3883-2-9-6-9">
          <path
             inkscape:connector-curvature="0"
             id="path3036-2-1-9-7-3"
             d="m 171.73826,1130.12 c -54.40005,0 -98.499997,4.9249 -98.499997,11 0,0.1677 0.02725,0.3342 0.09375,0.5 l -0.09375,0 0,69 0.09375,0 c -0.05922,0.1566 -0.09375,0.3418 -0.09375,0.5 0,6.0752 44.099947,11 98.499997,11 54.40005,0 98.5,-4.9248 98.5,-11 0,-0.1582 -0.0345,-0.3434 -0.0937,-0.5 l 0.0937,0 0,-69 -0.0937,0 c 0.0665,-0.1658 0.0937,-0.3323 0.0937,-0.5 0,-6.0751 -44.09995,-11 -98.5,-11 z"
             style="fill:#ff8080;fill-opacity:1;stroke:#000000;stroke-width:3;stroke-miterlimit:4;stroke-opacity:1;stroke-dasharray:none" />
          <path
             transform="matrix(1.0139706,0,0,0.90588232,-92.618368,208.50962)"
             d="m 357.85715,1029.505 c 0,6.7063 -43.49234,12.1429 -97.14286,12.1429 -53.65052,0 -97.14286,-5.4366 -97.14286,-12.1429 0,-6.7063 43.49234,-12.1429 97.14286,-12.1429 53.65052,0 97.14286,5.4366 97.14286,12.1429 z"
             sodipodi:ry="12.142858"
             sodipodi:rx="97.14286"
             sodipodi:cy="1029.505"
             sodipodi:cx="260.71429"
             id="path3036-94-1-3-5"
             style="fill:#ffaaaa;fill-opacity:1;stroke:#000000;stroke-width:3.1302042;stroke-miterlimit:4;stroke-opacity:1;stroke-dasharray:none"
             sodipodi:type="arc" />
        </g>
      </g>
      <text
         sodipodi:linespacing="125%"
         id="text4828-4-6-7-7-5-4-7-8-8-9"
         y="437.4451"
         x="175.02802"
         style="font-size:32px;font-style:normal;font-variant:normal;font-weight:normal;font-stretch:normal;text-align:start;line-height:125%;letter-spacing:0px;word-spacing:0px;writing-mode:lr-tb;text-anchor:start;fill:#000000;fill-opacity:1;stroke:none;font-family:Helvetica LT Std;-inkscape-font-specification:Helvetica LT Std"
         xml:space="preserve"><tspan
           y="437.4451"
           x="175.02802"
           id="tspan4830-5-6-0-7-8-4-8-8-6-00"
           sodipodi:role="line">slave 0</tspan></text>
    </g>
    <g
       id="g16995">
      <g
         transform="matrix(0.98474574,0,0,0.98474574,197.34344,-709.98227)"
         id="g3908-80-9-2-6">
        <g
           id="g3883-2-4-2-7">
          <path
             inkscape:connector-curvature="0"
             id="path3036-2-1-8-3-5"
             d="m 171.73826,1130.12 c -54.40005,0 -98.499997,4.9249 -98.499997,11 0,0.1677 0.02725,0.3342 0.09375,0.5 l -0.09375,0 0,69 0.09375,0 c -0.05922,0.1566 -0.09375,0.3418 -0.09375,0.5 0,6.0752 44.099947,11 98.499997,11 54.40005,0 98.5,-4.9248 98.5,-11 0,-0.1582 -0.0345,-0.3434 -0.0937,-0.5 l 0.0937,0 0,-69 -0.0937,0 c 0.0665,-0.1658 0.0937,-0.3323 0.0937,-0.5 0,-6.0751 -44.09995,-11 -98.5,-11 z"
             style="fill:#ff8080;fill-opacity:1;stroke:#000000;stroke-width:3;stroke-miterlimit:4;stroke-opacity:1;stroke-dasharray:none" />
          <path
             transform="matrix(1.0139706,0,0,0.90588232,-92.618368,208.50962)"
             d="m 357.85715,1029.505 c 0,6.7063 -43.49234,12.1429 -97.14286,12.1429 -53.65052,0 -97.14286,-5.4366 -97.14286,-12.1429 0,-6.7063 43.49234,-12.1429 97.14286,-12.1429 53.65052,0 97.14286,5.4366 97.14286,12.1429 z"
             sodipodi:ry="12.142858"
             sodipodi:rx="97.14286"
             sodipodi:cy="1029.505"
             sodipodi:cx="260.71429"
             id="path3036-94-0-5-8"
             style="fill:#ffaaaa;fill-opacity:1;stroke:#000000;stroke-width:3.1302042;stroke-miterlimit:4;stroke-opacity:1;stroke-dasharray:none"
             sodipodi:type="arc" />
        </g>
      </g>
      <text
         sodipodi:linespacing="125%"
         id="text4828-4-6-7-7-5-4-7-8-8-2"
         y="467.44489"
         x="319.11343"
         style="font-size:32px;font-style:normal;font-variant:normal;font-weight:normal;font-stretch:normal;text-align:start;line-height:125%;letter-spacing:0px;word-spacing:0px;writing-mode:lr-tb;text-anchor:start;fill:#000000;fill-opacity:1;stroke:none;font-family:Helvetica LT Std;-inkscape-font-specification:Helvetica LT Std"
         xml:space="preserve"><tspan
           y="467.44489"
           x="319.11343"
           id="tspan4830-5-6-0-7-8-4-8-8-6-0"
           sodipodi:role="line">slave 1</tspan></text>
    </g>
    <path
       style="fill:none;stroke:#000000;stroke-width:3;stroke-linecap:round;stroke-linejoin:miter;stroke-miterlimit:4;stroke-opacity:1;stroke-dasharray:none"
       d="m 366.46196,284.93361 0,128.57143"
       id="path17011"
       inkscape:connector-curvature="0" />
    <path
       style="fill:none;stroke:#000000;stroke-width:3;stroke-linecap:round;stroke-linejoin:miter;stroke-miterlimit:4;stroke-opacity:1;stroke-dasharray:none"
       d="m 409.46196,302.82899 123.74368,79.29698"
       id="path17521"
       inkscape:connector-curvature="0" />
    <path
       style="fill:none;stroke:#000000;stroke-width:3;stroke-linecap:round;stroke-linejoin:miter;stroke-miterlimit:4;stroke-opacity:1;stroke-dasharray:none"
       d="M 323.46196,302.82899 199.71828,382.12597"
       id="path17521-0"
       inkscape:connector-curvature="0" />
    <g
       id="g3908-80-9-2-6-7"
       transform="matrix(0.98474574,0,0,0.98474574,197.34344,-889.98227)">
      <g
         id="g3883-2-4-2-7-6">
        <path
           style="fill:#ff8080;fill-opacity:1;stroke:#000000;stroke-width:3;stroke-miterlimit:4;stroke-opacity:1;stroke-dasharray:none"
           d="m 171.73826,1130.12 c -54.40005,0 -98.499997,4.9249 -98.499997,11 0,0.1677 0.02725,0.3342 0.09375,0.5 l -0.09375,0 0,69 0.09375,0 c -0.05922,0.1566 -0.09375,0.3418 -0.09375,0.5 0,6.0752 44.099947,11 98.499997,11 54.40005,0 98.5,-4.9248 98.5,-11 0,-0.1582 -0.0345,-0.3434 -0.0937,-0.5 l 0.0937,0 0,-69 -0.0937,0 c 0.0665,-0.1658 0.0937,-0.3323 0.0937,-0.5 0,-6.0751 -44.09995,-11 -98.5,-11 z"
           id="path3036-2-1-8-3-5-4"
           inkscape:connector-curvature="0" />
        <path
           sodipodi:type="arc"
           style="fill:#ffaaaa;fill-opacity:1;stroke:#000000;stroke-width:3.1302042;stroke-miterlimit:4;stroke-opacity:1;stroke-dasharray:none"
           id="path3036-94-0-5-8-3"
           sodipodi:cx="260.71429"
           sodipodi:cy="1029.505"
           sodipodi:rx="97.14286"
           sodipodi:ry="12.142858"
           d="m 357.85715,1029.505 c 0,6.7063 -43.49234,12.1429 -97.14286,12.1429 -53.65052,0 -97.14286,-5.4366 -97.14286,-12.1429 0,-6.7063 43.49234,-12.1429 97.14286,-12.1429 53.65052,0 97.14286,5.4366 97.14286,12.1429 z"
           transform="matrix(1.0139706,0,0,0.90588232,-92.618368,208.50962)" />
      </g>
    </g>
    <text
       xml:space="preserve"
       style="font-size:32px;font-style:normal;font-variant:normal;font-weight:normal;font-stretch:normal;text-align:start;line-height:125%;letter-spacing:0px;word-spacing:0px;writing-mode:lr-tb;text-anchor:start;fill:#000000;fill-opacity:1;stroke:none;font-family:Helvetica LT Std;-inkscape-font-specification:Helvetica LT Std"
       x="316.83618"
       y="286.66089"
       id="text4828-4-6-7-7-5-4-7-8"
       sodipodi:linespacing="125%"><tspan
         sodipodi:role="line"
         id="tspan4830-5-6-0-7-8-4-8-8"
         x="316.83618"
         y="286.66089">master</tspan></text>
  </g>
</svg>
