<?xml version="1.0" encoding="UTF-8" standalone="no"?>
<!-- Created with Inkscape (http://www.inkscape.org/) -->

<svg
   xmlns:dc="http://purl.org/dc/elements/1.1/"
   xmlns:cc="http://creativecommons.org/ns#"
   xmlns:rdf="http://www.w3.org/1999/02/22-rdf-syntax-ns#"
   xmlns:svg="http://www.w3.org/2000/svg"
   xmlns="http://www.w3.org/2000/svg"
   xmlns:sodipodi="http://sodipodi.sourceforge.net/DTD/sodipodi-0.dtd"
   xmlns:inkscape="http://www.inkscape.org/namespaces/inkscape"
   width="373.86124"
   height="268.71249"
   id="svg3407"
   version="1.1"
   inkscape:version="0.48.4 r9939"
   sodipodi:docname="scale-cube.svg">
  <defs
     id="defs3409">
    <clipPath
       id="clipPath3598"
       clipPathUnits="userSpaceOnUse">
      <path
         id="path3600"
         d="M 0,576 360,576 360,0.03 0,0.03 0,576 z" />
    </clipPath>
  </defs>
  <sodipodi:namedview
     id="base"
     pagecolor="#ffffff"
     bordercolor="#666666"
     borderopacity="1.0"
     inkscape:pageopacity="1"
     inkscape:pageshadow="2"
     inkscape:zoom="1.979899"
     inkscape:cx="221.38142"
     inkscape:cy="125.95122"
     inkscape:document-units="px"
     inkscape:current-layer="layer1"
     showgrid="false"
     fit-margin-top="20"
     fit-margin-left="20"
     fit-margin-right="20"
     fit-margin-bottom="20"
     inkscape:window-width="1920"
     inkscape:window-height="1027"
     inkscape:window-x="0"
     inkscape:window-y="0"
     inkscape:window-maximized="1" />
  <metadata
     id="metadata3412">
    <rdf:RDF>
      <cc:Work
         rdf:about="">
        <dc:format>image/svg+xml</dc:format>
        <dc:type
           rdf:resource="http://purl.org/dc/dcmitype/StillImage" />
        <dc:title />
      </cc:Work>
    </rdf:RDF>
  </metadata>
  <g
     inkscape:label="Layer 1"
     inkscape:groupmode="layer"
     id="layer1"
     transform="translate(-124.49795,-323.72022)">
    <text
       id="text3061"
       x="158.46669"
       y="384.14911"
       style="font-size:15px">
      <tspan
         style="font-size:8.75px;font-variant:normal;font-weight:normal;writing-mode:lr-tb;fill:#231f20;fill-opacity:1;fill-rule:nonzero;stroke:none;font-family:Helvetica LT Std;-inkscape-font-specification:Helvetica"
         x="158.46669 164.30293 169.16795 171.11043 173.05293 175.48543 177.91795 182.60881"
         y="384.14911"
         sodipodi:role="line"
         id="tspan3063">Split by</tspan>
      <tspan
         style="font-size:8.75px;font-variant:normal;font-weight:normal;writing-mode:lr-tb;fill:#231f20;fill-opacity:1;fill-rule:nonzero;stroke:none;font-family:Helvetica LT Std;-inkscape-font-specification:Helvetica"
         x="158.46669 162.84169 167.70668 170.88118 175.25618 177.19868 181.57368 186.43867 188.8712 193.73619"
         y="394.64911"
         sodipodi:role="line"
         id="tspan3065">service or</tspan>
      <tspan
         style="font-size:8.75px;font-variant:normal;font-weight:normal;writing-mode:lr-tb;fill:#231f20;fill-opacity:1;fill-rule:nonzero;stroke:none;font-family:Helvetica LT Std;-inkscape-font-specification:Helvetica"
         x="158.46669 163.33168 168.1967 170.6292 175.49419 177.92668 182.7917 185.2242 187.65669 189.5992 194.46419 196.40669 198.83919"
         y="405.14911"
         sodipodi:role="line"
         id="tspan3067">data affinity</tspan>
      <tspan
         style="font-size:8.75px;font-variant:normal;font-weight:normal;writing-mode:lr-tb;fill:#231f20;fill-opacity:1;fill-rule:nonzero;stroke:none;font-family:Helvetica LT Std;-inkscape-font-specification:Helvetica"
         x="169.6667 175.98418 180.8492 183.28169 187.65669 192.52168 194.46419 196.40669 198.83919"
         y="508.04825"
         sodipodi:role="line"
         id="tspan3069">No splits</tspan>
      <tspan
         style="font-size:8.75px;font-variant:normal;font-weight:normal;writing-mode:lr-tb;fill:#231f20;fill-opacity:1;fill-rule:nonzero;stroke:none;font-family:Helvetica LT Std;-inkscape-font-specification:Helvetica"
         x="144.49818 150.33443 152.76695 157.63194 160.89394 163.32643 165.26894 170.13393 174.99895 177.43144 182.83195 187.69606 189.63857 194.50356"
         y="532.8833"
         sodipodi:role="line"
         id="tspan3071">Starting Point</tspan>
    </text>
    <text
       id="text3073"
       x="205.9792"
       y="570.43921"
       style="font-size:15px">
      <tspan
         style="font-size:8.75px;font-variant:normal;font-weight:bold;writing-mode:lr-tb;fill:#231f20;fill-opacity:1;fill-rule:nonzero;stroke:none;font-family:Helvetica LT Std;-inkscape-font-specification:Helvetica-Bold"
         x="205.9792 211.81544 214.24794 220.56544 225.43044 227.86293 232.72795 235.16045 240.02544 242.45793 248.77544 254.12169 257.52545 259.95795 264.33295 269.67917 275.02545 277.93921 282.8042 285.23669 287.66919 293.98669 299.33295 304.6792 307.11169 309.54419 314.40921 319.2742 322.18796 324.62045 329.96671"
         y="570.43921"
         sodipodi:role="line"
         id="tspan3075">X Axis – Horizontal Duplication</tspan>
    </text>
    <text
       transform="matrix(0.62754105,-0.77858348,0.77858348,0.62754105,0,0)"
       id="text3077"
       x="-194.21011"
       y="635.89539"
       style="font-size:15px">
      <tspan
         style="font-size:8.7500248px;font-variant:normal;font-weight:bold;writing-mode:lr-tb;fill:#231f20;fill-opacity:1;fill-rule:nonzero;stroke:none;font-family:Helvetica LT Std;-inkscape-font-specification:Helvetica-Bold"
         x="-194.21011 -188.86385 -186.43134 -180.11382 -175.24881 -172.8163 -167.95129 -165.51878 -160.65376 -158.22127 -152.875 -147.52873 -142.18246 -137.31746 -131.97119 -126.62491 -124.19241 -118.84615 -115.44238 -113.00987 -107.66361 -102.31734 -98.913589 -91.307198 -85.96093 -83.528419 -78.663414 -76.230904"
         y="635.89539"
         sodipodi:role="line"
         id="tspan3079">Z Axis – Lookup or Formulaic</tspan>
      <tspan
         style="font-size:8.7500248px;font-variant:normal;font-weight:bold;writing-mode:lr-tb;fill:#231f20;fill-opacity:1;fill-rule:nonzero;stroke:none;font-family:Helvetica LT Std;-inkscape-font-specification:Helvetica-Bold"
         x="-144.7016 -138.86534 -133.51906 -131.08656 -128.65405 -125.7403"
         y="646.39539"
         sodipodi:role="line"
         id="tspan3081">Splits</tspan>
    </text>
    <text
       id="text3083"
       x="208.46156"
       y="522.30109"
       style="font-size:15px">
      <tspan
         style="font-size:8.75px;font-variant:normal;font-weight:normal;writing-mode:lr-tb;fill:#231f20;fill-opacity:1;fill-rule:nonzero;stroke:none;font-family:Helvetica LT Std;-inkscape-font-specification:Helvetica"
         x="208.46156 215.26906 220.13405 224.86781"
         y="522.30109"
         sodipodi:role="line"
         id="tspan3085">One,</tspan>
      <tspan
         style="font-size:8.75px;font-variant:normal;font-weight:normal;writing-mode:lr-tb;fill:#231f20;fill-opacity:1;fill-rule:nonzero;stroke:none;font-family:Helvetica LT Std;-inkscape-font-specification:Helvetica"
         x="208.46156 215.75032 220.61531 225.4803 230.34532 232.2878 234.2303 236.6628 241.52782 243.47032 247.84532 250.27782 255.14281 260.00781 262.44034"
         y="532.80109"
         sodipodi:role="line"
         id="tspan3087">monolithic data</tspan>
      <tspan
         style="font-size:8.75px;font-variant:normal;font-weight:normal;writing-mode:lr-tb;fill:#231f20;fill-opacity:1;fill-rule:nonzero;stroke:none;font-family:Helvetica LT Std;-inkscape-font-specification:Helvetica"
         x="208.46156 213.32655 216.24031 220.61531 225.4803 227.42281 229.8553 234.72032 239.09532 241.52782 246.39281 249.30656"
         y="543.30109"
         sodipodi:role="line"
         id="tspan3089">architecture</tspan>
      <tspan
         style="font-size:8.75px;font-variant:normal;font-weight:normal;writing-mode:lr-tb;fill:#231f20;fill-opacity:1;fill-rule:nonzero;stroke:none;font-family:Helvetica LT Std;-inkscape-font-specification:Helvetica"
         x="287.33145 293.64896 298.51395 303.37894 308.24396 312.61896 315.05145 319.91644"
         y="522.30109"
         sodipodi:role="line"
         id="tspan3091">Reads on</tspan>
      <tspan
         style="font-size:8.75px;font-variant:normal;font-weight:normal;writing-mode:lr-tb;fill:#231f20;fill-opacity:1;fill-rule:nonzero;stroke:none;font-family:Helvetica LT Std;-inkscape-font-specification:Helvetica"
         x="287.33145 290.24521 295.1102 299.97519 301.91769 303.8602 308.2352 313.10019 317.34308 319.77557 322.20718 328.52469 331.56882 333.51132 335.94382 340.80884"
         y="532.80109"
         sodipodi:role="line"
         id="tspan3093">replicas, writes</tspan>
      <tspan
         style="font-size:8.75px;font-variant:normal;font-weight:normal;writing-mode:lr-tb;fill:#231f20;fill-opacity:1;fill-rule:nonzero;stroke:none;font-family:Helvetica LT Std;-inkscape-font-specification:Helvetica"
         x="287.33145 292.19644 297.06146 299.49396 304.35895 306.79144 311.16644 313.10895 317.97394 322.83896 324.78146"
         y="543.30109"
         sodipodi:role="line"
         id="tspan3095">on a single</tspan>
      <tspan
         style="font-size:8.75px;font-variant:normal;font-weight:normal;writing-mode:lr-tb;fill:#231f20;fill-opacity:1;fill-rule:nonzero;stroke:none;font-family:Helvetica LT Std;-inkscape-font-specification:Helvetica"
         x="287.33145 292.19644 297.06146 301.92645"
         y="553.80109"
         sodipodi:role="line"
         id="tspan3097">node</tspan>
      <tspan
         style="font-size:8.75px;font-variant:normal;font-weight:normal;writing-mode:lr-tb;fill:#231f20;fill-opacity:1;fill-rule:nonzero;stroke:none;font-family:Helvetica LT Std;-inkscape-font-specification:Helvetica"
         x="335.76883 342.08633 346.95132 349.38382 353.75882 358.62381 360.56631 362.50882 364.94131"
         y="515.18207"
         sodipodi:role="line"
         id="tspan3099">No splits</tspan>
      <tspan
         style="font-size:8.75px;font-variant:normal;font-weight:normal;writing-mode:lr-tb;fill:#231f20;fill-opacity:1;fill-rule:nonzero;stroke:none;font-family:Helvetica LT Std;-inkscape-font-specification:Helvetica"
         x="384.82745 389.69247 394.55746 397.47122 402.33621"
         y="457.11972"
         sodipodi:role="line"
         id="tspan3101">Large</tspan>
      <tspan
         style="font-size:8.75px;font-variant:normal;font-weight:normal;writing-mode:lr-tb;fill:#231f20;fill-opacity:1;fill-rule:nonzero;stroke:none;font-family:Helvetica LT Std;-inkscape-font-specification:Helvetica"
         x="384.82745 392.11618 396.98123 401.84622 406.71121 408.65372 413.51871 417.89371 420.3262 425.19119"
         y="467.61972"
         sodipodi:role="line"
         id="tspan3103">modulus or</tspan>
      <tspan
         style="font-size:8.75px;font-variant:normal;font-weight:normal;writing-mode:lr-tb;fill:#231f20;fill-opacity:1;fill-rule:nonzero;stroke:none;font-family:Helvetica LT Std;-inkscape-font-specification:Helvetica"
         x="384.82745 389.69247 394.55746 398.93246"
         y="478.11972"
         sodipodi:role="line"
         id="tspan3105">hash</tspan>
      <tspan
         style="font-size:8.75px;font-variant:normal;font-weight:normal;writing-mode:lr-tb;fill:#231f20;fill-opacity:1;fill-rule:nonzero;stroke:none;font-family:Helvetica LT Std;-inkscape-font-specification:Helvetica"
         x="406.87222 413.18973 418.05472 422.91971 425.83347 428.26596 430.69846 435.56345 437.99594 439.93845 444.80344 446.74594 449.17844 454.04343 456.47592 462.31223 466.68723 471.55222 473.49472"
         y="351.23773"
         sodipodi:role="line"
         id="tspan3107">Near Infinite Scale</tspan>
    </text>
    <text
       id="text3109"
       x="147.77507"
       y="442.63498"
       style="font-size:15px">
      <tspan
         style="font-size:8.75px;font-variant:normal;font-weight:bold;writing-mode:lr-tb;fill:#231f20;fill-opacity:1;fill-rule:nonzero;stroke:none;font-family:Helvetica LT Std;-inkscape-font-specification:Helvetica-Bold"
         x="147.77507 153.61131 156.04381 162.36131 167.2263 169.6588 174.52382 176.95631 181.8213 184.2538 190.09007 195.43633 197.86882 200.30132"
         y="442.63498"
         sodipodi:role="line"
         id="tspan3111">Y Axis – Split</tspan>
      <tspan
         style="font-size:8.75px;font-variant:normal;font-weight:bold;writing-mode:lr-tb;fill:#231f20;fill-opacity:1;fill-rule:nonzero;stroke:none;font-family:Helvetica LT Std;-inkscape-font-specification:Helvetica-Bold"
         x="147.77507 152.94807 157.81306 160.24556 165.59181 170.93806 176.28432 181.14931 184.06306 186.49556 191.84181 197.18806"
         y="453.13498"
         sodipodi:role="line"
         id="tspan3113">by Function,</tspan>
      <tspan
         style="font-size:8.75px;font-variant:normal;font-weight:bold;writing-mode:lr-tb;fill:#231f20;fill-opacity:1;fill-rule:nonzero;stroke:none;font-family:Helvetica LT Std;-inkscape-font-specification:Helvetica-Bold"
         x="147.77507 153.61131 158.4763 161.96492 166.82994 169.26244 174.12743 179.07817 181.16243 183.59492 188.94118"
         y="463.63498"
         sodipodi:role="line"
         id="tspan3115">Service, or</tspan>
      <tspan
         style="font-size:8.75px;font-variant:normal;font-weight:bold;writing-mode:lr-tb;fill:#231f20;fill-opacity:1;fill-rule:nonzero;stroke:none;font-family:Helvetica LT Std;-inkscape-font-specification:Helvetica-Bold"
         x="147.77507 154.09258 158.95757 163.82256 169.16881 174.51506 177.74467 182.6097"
         y="474.13498"
         sodipodi:role="line"
         id="tspan3117">Resource</tspan>
    </text>
    <path
       inkscape:connector-curvature="0"
       d="m 330.73545,509.88522 -122.7875,0 0,-108.38625 122.7875,0 0,108.38625 z m 52.01375,-62.4425 -52.17625,62.4425 0,-108.38625 52.17625,-52.1 0,98.04375 z m -52.01375,-45.9425 -122.7875,0 65.18375,-52.10125 109.3825,0 -51.77875,52.10125 z"
       style="fill:none;stroke:#50a5db;stroke-width:1.25;stroke-linecap:round;stroke-linejoin:round;stroke-miterlimit:4;stroke-opacity:1;stroke-dasharray:none"
       id="path3119" />
    <path
       inkscape:connector-curvature="0"
       d="m 273.1317,349.39897 0,97.83375 109.6175,0 m -109.6175,0 -65.18375,62.6525"
       style="fill:none;stroke:#50a5db;stroke-width:0.625;stroke-linecap:round;stroke-linejoin:round;stroke-miterlimit:4;stroke-opacity:1;stroke-dasharray:3.75, 5;stroke-dashoffset:0"
       id="path3121" />
    <path
       inkscape:connector-curvature="0"
       d="m 405.1742,347.97522 -13.66375,0"
       style="fill:none;stroke:#231f20;stroke-width:1.25;stroke-linecap:butt;stroke-linejoin:miter;stroke-miterlimit:4;stroke-opacity:1;stroke-dasharray:none"
       id="path3123" />
    <path
       inkscape:connector-curvature="0"
       d="m 385.33295,347.97522 8.70625,-3.5575 -2.06625,3.5575 2.06625,3.55625 -8.70625,-3.55625"
       style="fill:#231f20;fill-opacity:1;fill-rule:nonzero;stroke:none"
       id="path3125" />
    <path
       inkscape:connector-curvature="0"
       d="m 191.9992,524.20647 9.95875,-9.355"
       style="fill:none;stroke:#231f20;stroke-width:1.25;stroke-linecap:butt;stroke-linejoin:miter;stroke-miterlimit:4;stroke-opacity:1;stroke-dasharray:none"
       id="path3127" />
    <path
       inkscape:connector-curvature="0"
       d="m 206.46045,510.62147 -3.91,8.55375 -0.92875,-4.0075 -3.94125,-1.1775 8.78,-3.36875"
       style="fill:#231f20;fill-opacity:1;fill-rule:nonzero;stroke:none"
       id="path3129" />
  </g>
</svg>
